<svg width="50" height="50" viewBox="0 0 50 50" fill="none" xmlns="http://www.w3.org/2000/svg">
<path d="M32.4713 26.3688L24.2421 34.598C23.872 34.9927 23.67 35.5159 23.6787 36.0569C23.6875 36.5979 23.9064 37.1142 24.2892 37.4967C24.6719 37.8792 25.1884 38.0977 25.7295 38.1061C26.2705 38.1145 26.7935 37.9121 27.1879 37.5417L38.9734 25.7584C39.1675 25.5654 39.3216 25.3359 39.4267 25.0831C39.5318 24.8303 39.5859 24.5592 39.5859 24.2855C39.5859 24.0117 39.5318 23.7406 39.4267 23.4879C39.3216 23.2351 39.1675 23.0056 38.9734 22.8125L27.1879 11.0271C26.9958 10.8282 26.7659 10.6694 26.5117 10.5603C26.2575 10.4511 25.9842 10.3936 25.7075 10.3912C25.4309 10.3888 25.1566 10.4415 24.9005 10.5463C24.6445 10.651 24.4119 10.8057 24.2163 11.0013C24.0207 11.1969 23.866 11.4295 23.7612 11.6856C23.6565 11.9416 23.6038 12.2159 23.6062 12.4925C23.6086 12.7692 23.6661 13.0425 23.7752 13.2967C23.8844 13.5509 24.0431 13.7808 24.2421 13.973L32.4713 22.2021H12.5004C11.9479 22.2021 11.418 22.4216 11.0273 22.8123C10.6366 23.203 10.4171 23.7329 10.4171 24.2855C10.4171 24.838 10.6366 25.3679 11.0273 25.7586C11.418 26.1493 11.9479 26.3688 12.5004 26.3688H32.4713Z" fill="black" fill-opacity="0.25"/>
</svg>
