<svg width="50" height="50" viewBox="0 0 50 50" fill="none" xmlns="http://www.w3.org/2000/svg">
<path d="M17.5287 26.3688L25.7579 34.598C26.128 34.9927 26.33 35.5159 26.3213 36.0569C26.3125 36.5979 26.0936 37.1142 25.7108 37.4967C25.3281 37.8792 24.8116 38.0977 24.2705 38.1061C23.7295 38.1145 23.2065 37.9121 22.8121 37.5417L11.0266 25.7584C10.8325 25.5654 10.6784 25.3359 10.5733 25.0831C10.4682 24.8303 10.4141 24.5592 10.4141 24.2855C10.4141 24.0117 10.4682 23.7406 10.5733 23.4879C10.6784 23.2351 10.8325 23.0056 11.0266 22.8125L22.8121 11.0271C23.0042 10.8282 23.2341 10.6694 23.4883 10.5603C23.7425 10.4511 24.0158 10.3936 24.2925 10.3912C24.5691 10.3888 24.8434 10.4415 25.0995 10.5463C25.3555 10.651 25.5881 10.8057 25.7837 11.0013C25.9793 11.1969 26.134 11.4295 26.2388 11.6856C26.3435 11.9416 26.3962 12.2159 26.3938 12.4925C26.3914 12.7692 26.3339 13.0425 26.2248 13.2967C26.1156 13.5509 25.9569 13.7808 25.7579 13.973L17.5287 22.2021H37.4996C38.0521 22.2021 38.582 22.4216 38.9727 22.8123C39.3634 23.203 39.5829 23.7329 39.5829 24.2855C39.5829 24.838 39.3634 25.3679 38.9727 25.7586C38.582 26.1493 38.0521 26.3688 37.4996 26.3688H17.5287Z" fill="black" fill-opacity="0.25"/>
</svg>
